<?xml version="1.0" encoding="UTF-8"?><svg id="Layer_1" xmlns="http://www.w3.org/2000/svg" width="171" height="182" viewBox="0 0 171 182"><defs><style>.cls-1{fill:none;}.cls-2{fill:#f9f4dc;}.cls-3{fill:#c2956e;}.cls-4{fill:#aa7b59;}.cls-5{fill:#aa8000;}.cls-6{fill:#233342;}.cls-7{fill:#6f3637;}.cls-8{fill:#5b2c2e;}.cls-9{fill:#2b2129;}.cls-10{fill:#4b2b31;}.cls-11{fill:#708a81;}.cls-12{opacity:.38;}</style></defs><g><path class="cls-3" d="M87.41,127.33c1.67-8.36,6.4-15.78,11.65-22.48,5.25-6.71,11.14-12.96,15.68-20.17,3-4.75,5.38-9.86,7.75-14.96,1.17-2.52,2.34-5.04,3.51-7.56,.55-16.06-4.15-32.28-9.57-47.61-1.48-4.19-3.82-9.03-8.23-9.55-4.43-.53-7.83,3.66-10.3,7.38-4.38,6.62-8.77,13.23-13.15,19.85-2.54,3.83-5.19,8.1-4.65,12.66,.42,3.56,2.72,6.56,4.53,9.66,6.63,11.33,7.17,25.21,5.82,38.26-.95,9.2-2.74,18.3-3.66,27.5-.42,4.13-1.59,9.82-.4,13.86,.15,.51,.33,.94,.54,1.31-.22-2.72-.05-5.49,.47-8.14Z"/><path class="cls-4" d="M122.49,69.72c-2.37,5.09-4.75,10.21-7.75,14.96-4.55,7.21-10.43,13.46-15.68,20.17-5.25,6.71-9.99,14.13-11.65,22.48-.53,2.65-.69,5.42-.47,8.14,1.06,1.9,2.7,1.85,3.61-.54,1.52-3.99,3.22-5.86,6.38-8.92,3.57-3.46,7.16-6.93,10.1-10.93,4.17-5.66,6.95-12.21,9.68-18.69,3.14-7.43,6.3-14.93,7.94-22.83,.79-3.78,1.21-7.59,1.34-11.41-1.17,2.52-2.34,5.04-3.51,7.56Z"/></g><g><path class="cls-5" d="M154.84,97.97c.05-.16,.13-.3,.21-.44-1.35,.7-2.63,1.57-3.83,2.51-2.38,1.87-4.52,4.03-6.88,5.93-7,5.63-15.95,8.77-24.94,8.77l-1.37,1.56c1.56-.76,3.37-.72,5.1-.84,5.32-.35,10.43-2.27,15.09-4.87s8.89-5.87,13.09-9.15c1.13-.88,2.27-1.75,3.53-2.42-.1-.34-.11-.72,0-1.05Z"/><path class="cls-9" d="M167.39,91.42c-.72,.01-1.33,.55-1.74,1.14-.41,.59-.7,1.27-1.19,1.8-1.26,1.36-3.35,1.37-5.17,1.69-1.48,.26-2.89,.79-4.23,1.48-.08,.14-.16,.28-.21,.44-.11,.33-.1,.71,0,1.05,.26-.14,.52-.28,.8-.4,1.85-.8,3.89-1.04,5.86-1.46s3.99-1.08,5.4-2.53c.65-.66,1.16-1.53,1.12-2.45-.04-.92,.29-.77-.63-.76Z"/></g><g><path class="cls-9" d="M150.9,74.38c-.88-.29-1.87,.13-2.5,.8-.63,.67-.98,1.53-1.34,2.37-1.13,2.62-2.5,5.11-4.02,7.51,.13,.04,.26,.1,.37,.18,.36,.27,.61,.66,.96,.93,.07,.05,.15,.1,.24,.14,.09-.14,.19-.28,.28-.42,1.08-1.83,1.66-3.94,3.01-5.58,.93-1.13,2.19-2.01,2.88-3.29s1.53-2.16,.13-2.63Z"/><path class="cls-5" d="M143.41,85.24c-.11-.08-.24-.14-.37-.18-4.27,6.71-9.82,12.7-15.31,18.56-3.23,3.46-6.75,7.08-11.41,8.19l.91,1.51c1.79,.24,2.54-1.45,4.05-2.43,1.51-.98,2.75-2.29,3.98-3.59,2.03-2.15,4.06-4.3,6.09-6.46,3.39-3.59,6.77-7.18,10.16-10.77,1.12-1.19,2.23-2.39,3.11-3.76-.08-.04-.17-.08-.24-.14-.35-.27-.6-.67-.96-.93Z"/></g><path class="cls-9" d="M118.88,113.02c2.47,2.67,2.62,7.41-.16,9.77-2.59,2.2-6.81,1.95-9.03,4.53-1.24,1.44-1.55,3.44-2.2,5.22-1.43,3.92-4.57,6.93-7.49,9.92-1.24,1.26-2.46,2.55-3.65,3.85-1.59,1.74-3.15,3.52-4.45,5.48-2.03,3.08-3.38,6.56-5.16,9.8-1.78,3.24-4.13,6.34-7.46,7.94-1.84,.88-4.28,1.16-5.72-.28-.91-.9-1.18-2.25-1.32-3.53-.93-8.47,2.17-16.87,6.05-24.45,3.37-6.59,8.19-8.33,13.27-13.71,3.06-3.24,4.3-7.53,9.53-13.04,2.77-2.92,7.6-4.56,11.76-4.24,2.25,.17,4.48,1.06,6.04,2.74Z"/><path class="cls-9" d="M104.62,130.43l3.56,9.74c.55,1.5,1.11,3.04,1.16,4.64,.12,3.56-2.2,6.68-4.41,9.47-.28,.35-.68,.75-1.11,.63-.62-.18-.51-1.1-.21-1.67,.72-1.37,1.76-2.54,2.59-3.84s1.47-2.83,1.25-4.36c-.14-.96-.61-1.83-1.07-2.68-1.1-2.03-2.19-4.05-3.29-6.08"/><path class="cls-9" d="M101.65,136.19l1.77,8.91c.27,1.38,.55,2.78,.38,4.17-.37,3.1-2.81,5.49-5.1,7.61-.29,.27-.69,.56-1.05,.39-.51-.24-.3-1.02,.04-1.47,.81-1.09,1.87-1.96,2.76-2.98s1.66-2.25,1.67-3.61c0-.85-.28-1.66-.57-2.46-.68-1.9-1.35-3.8-2.03-5.7"/><path class="cls-1" d="M127.3,103.3c-.05,.47,.24,.95,.68,1.11s.98-.01,1.24-.4"/><g><path class="cls-7" d="M87.75,108.56c1.28-16.32-.87-32.9-6.27-48.35-2.88-8.25-6.74-16.26-12.3-23-5.56-6.74-12.95-12.17-21.39-14.43-6.68-1.79-14.31-1.8-19.45-6.43-.19-.18-.37-.37-.55-.55-.13,4.83-.13,9.67,.03,14.51,.18,5.11,.53,10.24,.03,15.33-.58,5.95-2.31,11.73-4.03,17.46-2.36,7.87-4.71,15.75-7.07,23.61-.52,1.71-.81,3.5-.74,5.28,.14,3.35,1.39,5.25,3.2,6.4,22.37,6.56,43.35,17.68,61.75,32.02,2.46,1.92,5.86,3.35,7.21,5.8l.02-.23c-.62-1.83-1.05-3.73-1.3-5.62-.94-7.22,.3-14.53,.87-21.79Z"/><path class="cls-8" d="M90.68,102.45c1.11-14.99,2.16-30.5-2.92-44.66-3.52-9.78-9.76-18.32-16.23-26.45-5.65-7.1-12.19-14.44-21.05-16.42-3.27-.73-6.87-.76-9.55-2.76-2.23-1.66-3.37-4.37-5.25-6.41-1.88-2.03-5.38-3.25-7.3-1.26-.29,3.77-.47,7.54-.58,11.31,.18,.19,.36,.38,.55,.55,5.14,4.63,12.77,4.64,19.45,6.43,8.44,2.26,15.82,7.69,21.39,14.43,5.56,6.74,9.42,14.75,12.3,23,5.4,15.45,7.55,32.03,6.27,48.35-.57,7.26-1.81,14.57-.87,21.79,.25,1.89,.68,3.79,1.3,5.62l.72-9.71c.59-7.94,1.18-15.87,1.78-23.81Z"/></g><path class="cls-10" d="M37,17.54c2.84,1.49,6,2.23,9.03,3.27,15.57,5.34,27.77,19.48,30.77,35.67-5.63,1.73-12.25-.46-15.73-5.22-1.87-2.55-2.99-5.83-5.68-7.49-3.04-1.88-6.93-1.05-10.43-.34-3.5,.71-7.62,1.05-10.17-1.45-5.03-4.93,1.28-14.86-3.43-20.1,1.39-.37,2.78-.75,4.17-1.12-1.5-.39-2.71-1.72-2.96-3.24-.42-1.55-.86-2.97-.88-4.54,1.49,1.76,3.18,3.45,5.31,4.57Z"/><path class="cls-10" d="M54.4,49.26c3.7,3.12,2.24,9.39,4.98,13.38,2.1,3.06,6.07,4.02,9.39,5.69,8.14,4.09,12.86,13.14,14.1,22.17s-.45,18.17-2.13,27.13c-2.76-7.58-5.52-15.15-8.27-22.73-1.79-4.93-4.2-10.46-9.2-12.03-3.56-1.11-7.91,.04-10.8-2.33-1.72-1.41-2.39-3.71-2.92-5.87s-1.08-4.46-2.67-6.02-4.6-1.87-5.85-.02c.42-1.29,.84-2.58,1.26-3.88-3.94-.38-7.62-2.84-9.47-6.33-1.07-2.02-2.48-7.01-.87-9.11,1.84-2.4,2.45-.51,5.12-.13,5.38,.76,12.59-3.91,17.32,.09Z"/><path class="cls-10" d="M39.02,69.29c2.82,1.99,4.31,5.19,5.4,8.33s1.95,6.42,3.97,9.13c2.61,3.52,6.85,5.64,11.01,7.45s8.51,3.51,11.77,6.52,5.18,7.77,3.28,11.66c-2.25,.61-4.55-.99-5.81-2.84s-1.95-4.03-3.46-5.7c-3.95-4.37-11.77-3.65-16.24-7.56-4.35-3.81-4.05-10.7-8.31-14.59-2.45-2.25-6-3.09-8.84-4.91-8.55-5.47,.51-12.21,7.22-7.49Z"/><g><path class="cls-10" d="M64.96,115.29c1.67-3.22-1.17-7.1-4.46-8.63-3.28-1.53-7.1-1.8-10.21-3.65-4.68-2.77-6.72-8.32-9.04-13.24s-6.04-10.1-11.46-10.45c-3.34-.22-6.99,1.34-8.89,4.1-1.9,2.76-1.97,6.66-.17,9.48,2.33,3.66,6.99,5.01,11.3,5.56s8.86,.67,12.58,2.9c3.55,2.12,5.78,5.83,8.55,8.9,2.77,3.07,7.84,6.16,11.81,5.03Z"/><path class="cls-10" d="M64.96,115.29c1.67-3.22-1.17-7.1-4.46-8.63-3.28-1.53-7.1-1.8-10.21-3.65-4.68-2.77-6.72-8.32-9.04-13.24s-6.04-10.1-11.46-10.45c-3.34-.22-6.99,1.34-8.89,4.1-1.9,2.76-1.97,6.66-.17,9.48,2.33,3.66,6.99,5.01,11.3,5.56s8.86,.67,12.58,2.9c3.55,2.12,5.78,5.83,8.55,8.9,2.77,3.07,7.84,6.16,11.81,5.03Z"/></g><g><path class="cls-1" d="M70.88,158.53c-.19-.08-.39-.16-.58-.25-.07,.08-.14,.16-.2,.24,.26,0,.52,.01,.78,0Z"/><path class="cls-6" d="M61.76,162.35c-2.87-.74-5.51-2.14-8.25-3.25-8.67-3.51-18.5-4.08-27.52-1.61-1.94,.53-3.92,1.29-5.55,2.44-.04,1.19-.24,2.4-.48,3.56-.41,2.05-.9,4.16-.63,6.21,.19,.2,.38,.38,.59,.55,1.09,.85,2.42,1.33,3.74,1.74,8.63,2.68,17.93,3.06,26.78,1.27,5.79-2.53,11.14-6.08,15.69-10.46-1.46,.09-2.96-.09-4.37-.45Z"/><path class="cls-11" d="M23.66,172c-1.32-.41-2.65-.89-3.74-1.74-.21-.17-.41-.35-.59-.55,.04,.34,.1,.68,.19,1.02,.77,2.89,3.32,5.07,6.16,6.07,2.83,.99,5.91,.96,8.9,.66,5.46-.55,10.82-1.99,15.85-4.19-8.85,1.8-18.15,1.42-26.78-1.27Z"/><path class="cls-11" d="M88.15,136.35c0-.09-.01-.18-.06-.26-1.39-2.38-4.72-3.79-7.14-5.68-18.4-14.34-39.38-25.46-61.75-32.02,.9,.57,1.95,.96,3.06,1.25l-.8,.11c-2.11-.14-4.22-.11-6.3,.22-4.57,.7-9.09,2.94-11.63,6.8-2.55,3.86-2.65,9.47,.49,12.88,2.47,2.69,6.75,4.07,7.64,7.62,.04,.17,.07,.35,.1,.52,.66,.25,1.32,.47,2.01,.65,10.69,2.68,21.78-4.45,32.67-2.78,7.1,1.08,13.07,5.73,18.62,10.3,4.85,3.99,9.88,8.15,15.76,10.13,1.8-1.59,3.64-3.11,5.22-4.84l.04-.04c.12-.13,.32-.28,.55-.45,1.38-1,1.99-2.75,1.53-4.38Z"/><path class="cls-11" d="M34.45,150.3c-2.64,.74-5.03,2.16-7.48,3.4-2.31,1.17-4.77,2.19-7.34,2.29,.06,.11,.13,.22,.18,.34,.52,1.13,.67,2.36,.63,3.61,1.63-1.15,3.61-1.91,5.55-2.44,9.02-2.48,18.85-1.9,27.52,1.61,2.74,1.11,5.39,2.51,8.25,3.25,1.41,.36,2.91,.55,4.37,.45,.86-.83,1.71-1.68,2.51-2.57,.5-.56,.98-1.14,1.46-1.71-5.56-.12-11-2.56-16.19-4.81-6.17-2.68-12.99-5.22-19.47-3.41Z"/><path class="cls-6" d="M46.44,125.64c-10.9-1.66-21.98,5.47-32.67,2.78-.68-.17-1.35-.4-2.01-.65,.47,3.28-2.2,6.46-2.12,9.84,.06,2.99,2.22,5.45,3.79,8,.08,.13,.16,.27,.23,.41,2.01,1.65,4.47,2.75,7.05,3.08,6.26,.79,12.18-2.7,18.37-3.95,7.64-1.54,15.94,.54,21.94,5.52,2.68,2.22,4.93,4.99,7.87,6.84,.45,.28,.92,.53,1.41,.76,2.3-2.77,4.42-5.7,6.74-8.45,1.15-1.37,2.45-2.59,3.77-3.76-5.88-1.98-10.91-6.14-15.76-10.13-5.55-4.56-11.52-9.21-18.62-10.3Z"/><path class="cls-11" d="M61.02,150.68c-6-4.98-14.3-7.07-21.94-5.52-6.19,1.25-12.11,4.74-18.37,3.95-2.58-.32-5.04-1.43-7.05-3.08,.96,1.71,1.61,3.8,1.31,5.6-.15,.89,.41,1.7,1.29,1.87,1.36,.26,2.66,1.23,3.37,2.48,2.57-.1,5.04-1.12,7.34-2.29,2.45-1.24,4.84-2.66,7.48-3.4,6.48-1.81,13.3,.73,19.47,3.41,5.19,2.26,10.63,4.69,16.19,4.81,.07-.08,.14-.16,.2-.24-.49-.23-.96-.48-1.41-.76-2.95-1.86-5.19-4.62-7.87-6.84Z"/></g><g class="cls-12"><path class="cls-2" d="M101.76,13.8s10.24-4.8,17.24,27.2c-.47-1.5-3-47-17.24-27.2Z"/></g></svg>