<?xml version="1.0" encoding="UTF-8"?><svg id="Layer_1" xmlns="http://www.w3.org/2000/svg" width="400" height="165" viewBox="0 0 400 165"><defs><style>.cls-1{fill:#330914;}</style></defs><path class="cls-1" d="M98.04,121.9H48.44l-13.4,31H4.04L73.24,7.9l69.4,145h-31.2l-13.4-31Zm-10.4-24.2l-14.4-33.4-14.4,33.4h28.8Z"/><path class="cls-1" d="M294.84,95.7v57.2h-27.2v-53.8c0-10.4-5.8-16.2-14-16.2-8.8,0-15,6.6-15,17.2v52.8h-27.4v-53.8c0-10.4-5.6-16.2-13.8-16.2-8.8,0-15.2,6.6-15.2,17.2v52.8h-27.2V63.5l26.4-3.2v10.8c6-7.4,14.8-11.6,25.4-11.6,11.4,0,20,4.8,25.4,13.2,6.6-8.4,17-13.2,29.4-13.2,21.2,0,33.2,14.2,33.2,36.2Z"/><path class="cls-1" d="M369.24,152.9l-.8-6c-6,5.4-14,8.6-23.2,8.6-19,0-34-14-34-32.4s14.6-32.2,34.8-32.2c7.6,0,14.6,2.6,20.8,6.6v-3.2c0-10-5-15.2-19.8-15.2-7.4,0-14.6,1.4-21.8,3.8l3.2-19.8c8.4-2.2,16.2-3.2,23.8-3.2,25.8,0,40,10.8,40,32.8v43.8l.8,16.4h-23.8Zm-1.6-30.4c0-8-6.6-14.2-15.4-14.2s-15,6.2-15,14.2,6.4,14.2,15,14.2,15.4-6.2,15.4-14.2Z"/></svg>