<?xml version="1.0" encoding="UTF-8"?><svg id="Layer_1" xmlns="http://www.w3.org/2000/svg" width="300" height="165" viewBox="0 0 300 165"><defs><style>.cls-1{fill:#330914;}</style></defs><path class="cls-1" d="M47.19,46.85v11.8h18.8v22h-18.8v69H19.99V80.65H5.79l3.4-22h10.8v-12.8c0-26.2,15.6-40.6,43.4-40.6h3.2V29.05h-2.4c-11,0-17,6.2-17,17.8Z"/><path class="cls-1" d="M157.39,117.05l7.8,20c-11,9.2-25.8,15.2-41.2,15.2-29,0-50.4-21-50.4-48s21-48.2,49-48.2c23.8,0,43.2,15.6,45.6,43.2l-66.4,21.4c4.6,6.8,12.4,11,22.4,11s21.6-4.2,33.2-14.6Zm-60-15.8l44.2-14.4c-3.8-6.6-10.6-10.4-18.8-10.4-13.8,0-24,10.4-25.4,24.8Z"/><path class="cls-1" d="M186.39,8.26l27.4-3.4V149.65h-27.4V8.26Z"/><path class="cls-1" d="M270.19,80.65v34.2c0,8,4.2,12.6,12,12.6,3.8,0,8.4-1.2,11.6-2.4v22.8c-4.6,2-11,3.4-18.2,3.4-21.6,0-32.6-12.8-32.6-33v-37.6h-14.2l3.4-22h10.8v-17l27.2-13.8v30.8h23.6v22h-23.6Z"/></svg>