<?xml version="1.0" encoding="UTF-8"?><svg id="Layer_1" xmlns="http://www.w3.org/2000/svg" width="220" height="165" viewBox="0 0 220 165"><defs><style>.cls-1{fill:#330914;}</style></defs><path class="cls-1" d="M17.59,10.26l27.4-3.4V151.65H17.59V10.26Z"/><path class="cls-1" d="M66.99,28.85c0-9,7.4-16.2,16.6-16.2s16.8,7.2,16.8,16.2-7.4,16-16.8,16-16.6-7.2-16.6-16Zm2.8,33.4l27.4-3.4v92.8h-27.4V62.25Z"/><path class="cls-1" d="M199.19,119.05l7.8,20c-11,9.2-25.8,15.2-41.2,15.2-29,0-50.4-21-50.4-48s21-48.2,49-48.2c23.8,0,43.2,15.6,45.6,43.2l-66.4,21.4c4.6,6.8,12.4,11,22.4,11s21.6-4.2,33.2-14.6Zm-60-15.8l44.2-14.4c-3.8-6.6-10.6-10.4-18.8-10.4-13.8,0-24,10.4-25.4,24.8Z"/></svg>