<?xml version="1.0" encoding="UTF-8"?><svg id="Layer_1" xmlns="http://www.w3.org/2000/svg" width="280" height="350" viewBox="0 0 280 350"><defs><style>.cls-1{fill:#f1d473;}</style></defs><path class="cls-1" d="M55,222.44c-3.17,.73-4.04,1.11-7.07,2.33-21.48,8.58-34.87,33.7-33.71,56.79,1.14,23.09,18.13,44.54,40.34,50.95,7.39,2.13,16.98,1.87,20.81-4.8,3.39-5.91,.14-13.6-4.76-18.32-4.89-4.73-11.25-7.74-16.15-12.45-6.65-6.4-10.19-15.88-9.35-25.08,.84-9.19,6.03-17.89,13.73-22.98,12.05-7.97,27.79-6.59,42.09-4.54,18.4,2.63,36.72,5.89,54.91,9.76,15.69,3.33,32.86,8.2,41.4,21.79,4.4,7.02,5.81,15.87,3.88,23.92-1.86,7.71-9.13,12.02-10.75,19.27-4.25,19.28,21.84,3.74,26.84-2.51,8.43-10.53,10.23-25.48,6.3-38.38-1.44-4.73-3.58-9.19-6.26-13.33h0c-1.41-5.5-2.01-11.06-.94-16.6,1.72-8.86,7.51-16.38,10.33-24.95,3.21-9.75,2.21-20.44-1.82-29.92-1.18-2.77,.09-6.02,2.92-7.03,12.72-4.54,23.45-14.79,28-27.56,4.93-13.85,2.33-30.03-6.24-41.94-.68-.94-1.09-2.06-1.05-3.23,.22-6.34,1.82-12.83,3.81-18.86,3.77-11.41,8.86-22.86,8.14-34.85-1.03-17.39-14.63-32.21-30.71-38.92-16.07-6.72-34.18-6.6-51.47-4.46-16.37,2.02-34.08,6.75-43.51,20.3-3.79,5.45-5.89,11.88-9.17,17.66-4.55,8.01-11.49,14.62-19.61,18.96-1.19,.63-3.44,1.21-5.24,2.04-.33,.15-.66,.28-1.01,.36-17.38,4.13-33.67,13.56-43.37,28.4-7.72,11.83-10.8,26.6-8.44,40.52,2.37,13.93,10.16,26.86,21.36,35.46,5.56,4.27,12.14,7.51,19,8.62,4.02,.65,6.46,4.78,4.88,8.54-.35,.84-.73,1.67-1.13,2.49-4.65,9.46-8.04,14.54-18.03,17.83,0,0-1.18,.48-2.43,1-1.85,.76-3.78,1.3-5.76,1.6-1.31,.2-2.16,.39-4.59,.94M182.59,87.79c.24,.05,.37,.09,.37,.14-.12-.04-.24-.09-.37-.14Zm35.35,7.55c-14.61-5.56-29.49-10.34-44.58-14.35-2.81-.75-5.65-1.47-8.5-2.14-.71-.17-1.39-.48-1.97-.93-.39-.3-.76-.61-1.13-.92-6.11-5.16-10.5-13.05-9.36-20.96,.91-6.3,5.22-11.75,10.56-15.22,5.35-3.46,11.64-5.16,17.91-6.25,13.42-2.29,27.79-1.82,39.81,4.55,12.02,6.37,20.99,19.61,19.46,33.12-1.04,9.2-6.99,17.7-15.27,21.82-1.08,.54-2.2,1-3.34,1.38s-2.43,.36-3.57-.09c0,0-.01,0-.02,0Zm-4.08,79.18c-1.08-.07-2.1-.48-2.95-1.14-10.49-8.22-23.84-12.71-37.21-13.86-16.06-1.38-32.2,1.68-47.64,6.29-3.12,.93-6.29,1.97-9.32,3.27-1.05,.45-2.21,.6-3.31,.32-11.52-2.84-22.13-9.76-28.06-19.98-6.97-11.98-6.38-28.46,2.87-38.78,6.78-7.56,17.16-11.11,27.29-11.71,10.15-.58,20.23,1.46,30.19,3.51,15.57,3.21,31.15,6.41,46.72,9.61,8.4,1.72,16.9,3.48,24.68,7.09,7.79,3.6,14.92,9.28,18.61,17.02,4.23,8.89,3.27,20.01-2.4,28.04-2.94,4.16-7.17,7.56-11.88,9.49-2.83,1.15-5.19,.98-7.58,.84Zm-84.45,47.27c-1.08-.18-2.09-.69-2.87-1.47-2.82-2.84-4.5-5.13-5.78-7.84-3.21-6.82-3.02-15.06,1.75-20.88,4.78-5.84,12.05-9.02,19.27-11.21,12.97-3.93,27.17-5.24,39.97-.8,12.79,4.46,23.81,15.49,25.57,28.93,1.07,8.12-1.94,16.71-7.56,22.62-3.8,3.98-7.78,5.99-13.59,6.22-.77,.03-1.53-.14-2.24-.46-6.28-2.8-12.83-5.06-19.42-7.01-11.33-3.34-23.14-6.14-35.1-8.1Z"/></svg>