<?xml version="1.0" encoding="UTF-8"?><svg id="Layer_1" xmlns="http://www.w3.org/2000/svg" width="257" height="82" viewBox="0 0 257 82"><defs><style>.cls-1{fill:none;stroke:#070002;stroke-linecap:round;stroke-miterlimit:10;stroke-width:2px;}</style></defs><g><path d="M27.19,31.97c7.94,0,12.47,5.89,12.47,13.17,0,6.66-3.76,13.95-12.59,13.95-7.98,0-12.51-5.89-12.51-13.17,0-6.66,3.76-13.95,12.63-13.95Zm-.04,2.48c-2.32,0-4.07,.66-5.31,1.51-3.1,2.17-4.26,6.04-4.26,9.57,0,6.2,3.41,11.08,9.57,11.08,2.33,0,4.07-.66,5.31-1.51,3.1-2.17,4.22-6.04,4.22-9.57,0-6.2-3.37-11.08-9.53-11.08Z"/><path d="M70.85,32.55l3.41,23.32c.12,.89,.31,1.82,.35,2.63h-2.79l-2.52-16.81-.62-5.35h-.12l-7.59,22.16h-3.25l-5.77-16.85-1.51-5.35h-.16l-3.14,22.2h-2.67c.08-.85,.23-2.01,.39-2.98l3.41-22.97h3.68l6.08,17.86,1.36,4.65h.19l7.52-22.51h3.76Z"/><path d="M115.41,32.55l3.41,23.32c.12,.89,.31,1.82,.35,2.63h-2.79l-2.52-16.81-.62-5.35h-.12l-7.59,22.16h-3.25l-5.77-16.85-1.51-5.35h-.16l-3.14,22.2h-2.67c.08-.85,.23-2.01,.39-2.98l3.41-22.97h3.68l6.08,17.86,1.36,4.65h.19l7.52-22.51h3.76Z"/><path d="M128.59,32.55v25.96h-2.83v-25.96h2.83Z"/><path d="M148.47,32.05c2.87,0,5.5,.74,7.79,2.13l-1.05,2.21c-2.09-1.12-4.34-1.9-6.97-1.9-2.94,0-5,1.05-6.47,2.29-2.6,2.25-3.64,5.54-3.64,9.03,0,5.58,2.67,10.73,10.23,10.73,2.01,0,3.83-.35,5.58-.93v-7.59h-7.48v-2.4h10.19v11.35c-2.52,1.24-5.19,2.05-8.52,2.05-9.03,0-12.98-5.89-12.98-12.82,0-7.28,4.34-14.14,13.33-14.14Z"/></g><path class="cls-1" d="M242.39,43.02c.81-15.7-13-13.94-30.35-30.35-5.33-5.04-11.8-3.07-17.4,2.15-7.2,6.71-12.95,18.77-12.95,28.2,0,16.76,13.59,30.35,30.35,30.35s29.48-13.61,30.35-30.35Z"/><path class="cls-1" d="M227.78,48.75l-7.07,10.93c-.21,.32-.63,.37-.91,.12l-9.39-8.58"/><path class="cls-1" d="M194,34h20.46c2.55,0,4.65,2.01,4.77,4.55l.91,20.15"/></svg>