<?xml version="1.0" encoding="UTF-8"?><svg id="Layer_1" xmlns="http://www.w3.org/2000/svg" width="73.4mm" height="86.56mm" viewBox="0 0 208.06 245.36"><defs><style>.cls-1{fill:#2e0e0e;}.cls-2{opacity:.67;}</style></defs><g><path class="cls-1" d="M146.57,227.17c-1.89,2.91-5.86,2.77-8.91,2.45-4.19-.45-8.03-2.13-11.94-3.6-4.75-1.8-9.5-3.59-14.25-5.39-2.13-.8-4.31-1.54-6.31-2.64s-3.44-2.6-4.89-4.28-2.94-3.24-4.8-4.48-3.76-2.05-5.74-2.84c-4.48-1.8-9.03-3.52-13.69-4.79-2.3-.63-4.64-1.1-7-1.43-2.14-.3-4.39-.58-6.2-1.87-3.33-2.38-4.95-6.91-6.98-10.32-2.67-4.5-5.67-8.8-8.93-12.89-1.52-1.9-3.24-3.66-4.47-5.77-1-1.7-2.04-4.1-.46-5.77,.85-.9,.01-2.41-1.22-2.09-1.64,.43-2.92-.79-3.67-2.13-1.01-1.81-.9-3.8-.6-5.78,.59-3.91,1.23-7.55-.73-11.2-3.22-6-10.28-9.05-11.72-16.12-.88-4.32-.45-9.03-.38-13.41,.07-4.76,.26-9.52,.86-14.24s1.93-9.05,2.92-13.61c.48-2.22,.66-4.44,.58-6.7s-.34-4.7,0-7.01c.61-4.06,3.34-7.44,3.6-11.6s-1.86-8.21-3.1-12.19c-.92-2.95-1.1-6.4,.64-9.11,.76-1.19,1.92-1.95,3.34-2.03,1.74-.1,3.37-.04,4.61-1.48,1.05-1.22,1.27-2.87,1.65-4.37,.48-1.91,1.58-3.18,3.09-4.42,3.24-2.67,6.78-5.43,10.73-6.95,3.32-1.27,7.07-1.53,10.34,.07,1.4,.69,2.65,1.69,3.46,3.04s1.17,2.98,2.06,4.32c.79,1.17,1.96,2.05,3.44,1.88,1.89-.22,3.04-2.03,4.31-3.25,2.83-2.73,6.18-4.92,9.8-6.46s7.43-2.42,11.3-2.61c2.01-.1,4.01,0,6.01,.27,2.13,.28,4.25,.63,6.39,.33,1.13-.16,2.14-.61,3.23-.91,.85-.23,1.08-.21,1.8,.21,1.39,.81,2.65-1.35,1.26-2.16-.45-.26-.85-.53-1.36-.64-1.17-.26-2.34,.16-3.43,.54-2.32,.8-4.55,.59-6.95,.26-4.14-.56-8.22-.56-12.33,.27s-7.75,2.27-11.2,4.32c-1.71,1.02-3.34,2.2-4.86,3.49-.79,.68-1.55,1.39-2.28,2.14-.51,.53-1.34,1.85-2.2,1.72-1.22-.19-1.87-2.88-2.27-3.82-.67-1.55-1.7-2.86-3.03-3.89-2.7-2.1-6.33-2.96-9.71-2.61-4.27,.44-8.12,2.58-11.55,5.03-3.12,2.23-7.15,4.66-8.31,8.53-.38,1.26-.41,3.62-1.67,4.37-.81,.48-1.98,.22-2.88,.33-.79,.09-1.53,.3-2.24,.66-2.83,1.45-4.06,4.74-4.34,7.74-.38,3.99,1.39,7.57,2.64,11.25,.72,2.12,1.33,4.35,1.05,6.61-.26,2.13-1.26,4.11-2.08,6.06-.89,2.13-1.5,4.24-1.61,6.55s.18,4.76,.15,7.14c-.04,4.82-1.98,9.44-2.84,14.15s-1.26,9.65-1.44,14.5-.36,9.77-.09,14.62c.22,4.06,1.35,7.63,3.93,10.81,2.15,2.65,4.88,4.78,7.02,7.44,1.04,1.29,1.92,2.75,2.32,4.37,.57,2.28,.03,4.62-.33,6.88-.58,3.71-.45,7.77,2.8,10.28,1.32,1.02,2.89,1.37,4.5,.94l-1.22-2.09c-3.05,3.23-.91,7.7,1.36,10.71,1.45,1.92,3.08,3.7,4.55,5.61,1.6,2.06,3.11,4.18,4.56,6.36s2.76,4.32,4.03,6.54c1.08,1.89,2.04,3.86,3.26,5.66,1.16,1.7,2.55,3.28,4.37,4.29,2.12,1.17,4.51,1.41,6.86,1.76,5.18,.76,10.15,2.45,15.04,4.28,4.58,1.71,9.44,3.25,12.85,6.94,1.59,1.72,2.98,3.6,4.87,5.02s4.04,2.3,6.2,3.13c5.15,1.98,10.32,3.9,15.48,5.86,4.71,1.78,9.28,3.78,14.33,4.25,4,.38,8.35-.08,10.72-3.72,.88-1.35-1.28-2.61-2.16-1.26h0Z"/><path class="cls-1" d="M114.51,15.79c1.73,1.35,3.41,2.99,4.77,4.72s2.38,3.97,4.62,4.73c.66,.23,1.34,.27,2.04,.28s1.48-.14,2.06,.3c.9,.68,1.3,2.37,1.82,3.34,1.2,2.24,2.79,4.3,4.63,6.05,3.7,3.52,8.46,5.92,13.53,6.63,1.3,.18,2.7,.12,3.47,1.36s1.27,2.82,1.95,4.17c1.39,2.77,3.04,5.42,4.9,7.89,2.03,2.7,4.66,5.07,6.25,8.07,1.3,2.44,1.63,5.76-.62,7.74-.52,.46-.44,1.3,0,1.77,1.5,1.59,1.44,3.85,1.34,5.9-.11,2.27-.32,4.5,.12,6.76,.49,2.48,1.6,4.79,2.67,7.06,1.16,2.44,2.2,4.88,2.86,7.51,1.38,5.46,1.23,11.12-.17,16.56s-3.92,10.59-6.48,15.62-5.05,9.89-7.71,14.77-3.35,10.07-3.8,15.5-.62,10.91-3.02,15.84c-1.09,2.25-2.37,4.4-3.32,6.72-1.04,2.53-1.87,5.16-2.44,7.83-1.3,6.05-1.34,12.35,.16,18.38,.71,2.86,1.76,5.59,3.21,8.15,.72,1.28,1.28,2.48,.87,3.97-.36,1.28-1.03,2.57-1.64,3.75-.74,1.42,1.41,2.69,2.16,1.26,1.07-2.06,2.43-4.5,2.09-6.89s-2.04-4.39-2.9-6.6c-2.14-5.44-2.81-11.38-2.2-17.18s2.42-10.92,5.04-15.89c1.17-2.21,2.31-4.46,2.93-6.89,.69-2.71,.99-5.52,1.24-8.3,.5-5.59,.47-11.66,2.97-16.8,1.22-2.5,2.68-4.89,3.94-7.37s2.63-5.16,3.95-7.74c2.59-5.06,5.2-10.17,6.85-15.63s2.18-11.04,1.31-16.64c-.46-2.99-1.35-5.88-2.56-8.64s-2.68-5.3-3.41-8.18c-1.21-4.78,1.47-10.57-2.29-14.58v1.77c2-1.75,2.63-4.45,2.28-7.01-.39-2.87-2.05-5.26-3.86-7.44-2.07-2.5-4.17-4.92-5.93-7.67-.88-1.37-1.69-2.78-2.43-4.23s-1.28-2.99-2.06-4.4c-1.54-2.8-4.5-2.43-7.21-3.07s-5.13-1.74-7.38-3.26-4.25-3.46-5.79-5.69c-.77-1.11-1.42-2.28-1.98-3.51s-1.12-2.43-2.35-3.1c-1.44-.79-3.16-.02-4.56-.73-1.24-.63-1.96-2.1-2.73-3.18-1.48-2.07-3.41-4-5.41-5.56-1.25-.98-3.04,.78-1.77,1.77h0Z"/></g><g class="cls-2"><path class="cls-1" d="M123.55,188.63c.85-1.76-.44-3.74-1.43-5.43s-1.51-4.28,.19-5.25c.59-.34,1.3-.36,1.96-.49,2.91-.57,5.02-3.26,5.84-6.11s.59-5.88,.44-8.84c-.27-5.33-.27-10.68-.01-16.01,.27-5.58,.89-11.3,3.5-16.24,3.33-6.28,9.6-10.71,12.47-17.22,1.9-4.31,2.14-9.24,1.24-13.87-2.47-12.78-14.04-23.24-27-24.4-3.25-.29-6.59-.07-9.68-1.11-1.03-.35-2.16-.83-3.15-.38-.6,.27-1.01,.84-1.39,1.37-2.32,3.18-5.06,6.04-8.14,8.49-1.38,1.09-2.85,2.12-4.52,2.67-5.09,1.67-10.35-1.38-15.43-3.07-.86-.28-1.78-.53-2.65-.3-.89,.24-1.57,.94-2.14,1.66-3.25,4.06-4.75,9.67-9.12,12.49-2.67,1.72-6.49,2.57-7.32,5.63-.38,1.38,0,2.92-.54,4.24-.92,2.22-3.84,2.72-5.52,4.44-1.01,1.04-1.51,2.47-1.76,3.9-1.28,7.31,3.14,14.23,5.39,21.29,1.79,5.62,2.21,11.67,1.23,17.49-.13,.76-.28,1.56-.04,2.3,.17,.5,.5,.93,.83,1.34,6.33,7.88,12.92,15.55,19.78,22.98,3.17,3.44,6.47,6.88,10.57,9.12s9.19,3.15,13.48,1.3c1.36-.59,2.61-1.44,4.03-1.87s3.13-.36,4.17,.7c.51,.52,.8,1.22,1.24,1.8,1.5,1.97,4.55,2.12,6.77,1.03,2.22-1.1,3.8-3.13,5.3-5.09l1.41,1.44Z"/></g><path class="cls-1" d="M148.26,226.3l-.24,.57-.39,.93s-6.47-5.44-10.57-7.09c-4.09-1.64-8.58-1.94-12.97-2.34-4.4-.41-8.9-.99-12.76-3.13-5.32-2.94-8.82-8.53-14.18-11.39-1.35-.72-2.79-1.26-4.18-1.89-.83-.38-.45-1.64,.44-1.49,4.33,.73,8.72,2.21,12.23-.13,.54-.36,1.05-.82,1.68-.96,.98-.22,1.94,.38,2.82,.88,7.75,4.41,10.41,6.81,14.33,7.87,1.01,.27,3.56,.63,4.36,.56,2.38-.21,4.36-2.48,5.03-4.82,.87-3.01-.3-6.39-2.54-8.58-.86-.83-1.89-1.57-2.36-2.67-.66-1.56,.08-3.46,1.39-4.52,1.32-1.07,3.06-1.44,4.76-1.5,1.59-.05,3.35,.1,4.6-.88,1.36-1.06,1.5-2.87,1.76-4.65,.13-.88,1.89-.74,2.01,.15,1.16,8.81-3.15,17.87-2.24,26.86,.67,6.53,3.79,12.49,7.04,18.22Z"/><path class="cls-1" d="M121.3,184.72c.78-1.64-.4-3.48-1.3-5.05s-1.37-3.98,.17-4.88c.54-.31,1.18-.34,1.79-.46,2.65-.53,4.57-3.03,5.31-5.68s.54-5.46,.4-8.22c-.25-4.96-.25-9.93,0-14.88,.25-5.18,.81-10.51,3.19-15.1,3.03-5.84,8.73-9.96,11.35-16.01,1.73-4.01,1.94-8.59,1.13-12.9-2.24-11.88-12.77-21.61-24.56-22.69-2.95-.27-6-.06-8.81-1.03-.94-.32-1.97-.77-2.87-.36-.55,.25-.91,.78-1.27,1.28-2.11,2.95-4.61,5.62-7.41,7.89-1.25,1.02-2.59,1.97-4.11,2.48-4.63,1.55-9.41-1.28-14.04-2.85-.78-.26-1.62-.49-2.41-.27-.81,.22-1.42,.88-1.95,1.54-2.95,3.77-4.32,8.99-8.29,11.61-2.43,1.6-5.9,2.39-6.66,5.23-.34,1.28,0,2.71-.49,3.94-.83,2.06-3.5,2.53-5.02,4.12-.92,.96-1.37,2.3-1.6,3.62-1.17,6.79,2.86,13.23,4.9,19.8,1.63,5.23,2.01,10.85,1.12,16.26-.12,.71-.26,1.45-.03,2.14,.15,.47,.46,.86,.76,1.24,5.75,7.33,11.76,14.46,17.99,21.36,2.88,3.19,5.88,6.39,9.61,8.48,3.73,2.09,8.36,2.93,12.27,1.21,1.24-.55,2.38-1.34,3.67-1.74s2.85-.33,3.79,.65c.46,.49,.72,1.14,1.13,1.68,1.37,1.83,4.14,1.97,6.16,.96s3.46-2.91,4.82-4.74"/><path class="cls-1" d="M143.33,182.75c1.31-6.27-1.85-12.07-3.05-18.08-.67-3.36-.45-6.66,.8-9.87s3.3-6.07,5.56-8.63c4.48-5.07,9.96-9.35,13.31-15.33,1.54-2.74,2.62-5.78,2.76-8.94s-1.09-6.31-1.86-9.46c-.84-3.44-.45-6.7,2.25-9.2,2.29-2.12,5.57-3.05,8.58-2.06,.77,.25,1.09-.96,.33-1.21-4.8-1.58-10.37,1.25-12.23,5.89-1.19,2.96-.41,6.08,.46,9.01,1.1,3.73,1.68,7.17,.52,10.98-4.07,13.42-21.71,19.51-22.13,34.56-.21,7.52,5.07,14.44,3.49,21.99-.16,.78,1.04,1.12,1.21,.33h0Z"/><path class="cls-1" d="M141.64,184.89c4.47-4.82-.62-12.08-3.34-16.33-2.16-3.37-3.37-6.87-2.79-10.91,.54-3.75,2.26-7.21,4.46-10.26,4.38-6.1,10.47-10.81,14.24-17.37,1.73-3.02,2.82-6.3,3.02-9.79,.2-3.72-.42-7.44-.22-11.16,.12-2.25,.61-4.47,1.79-6.42,1.09-1.81,2.62-3.29,4.08-4.8,2.62-2.72,5.29-6.05,4.78-10.07-.1-.79-1.35-.8-1.25,0,.51,4.03-2.41,7.12-5,9.79-2.39,2.47-4.51,5.01-5.26,8.46s-.33,7.04-.18,10.54c.16,3.83-.21,7.47-1.87,10.97-3.18,6.71-9.06,11.48-13.64,17.17-4.19,5.2-7.65,12.02-5.89,18.87,.99,3.85,3.74,6.82,5.58,10.25,1.54,2.86,3.17,7.41,.62,10.17-.55,.59,.34,1.48,.88,.88h0Z"/><path class="cls-1" d="M127.05,208.93c-4.26,.51-7.36-2.97-9.66-6.07-2.17-2.94-4.32-5.93-7.8-7.39-7.68-3.22-15.74,1.12-23.51,1.35-8.84,.26-15.22-6.17-19.72-13.09-5.01-7.72-9.47-15.84-14.15-23.76-3.91-6.61-8.28-14.01-16.02-16.53-.77-.25-1.09,.96-.33,1.21,7.22,2.36,11.37,9.36,15.02,15.53,4.73,8,9.24,16.2,14.28,24.01,4.05,6.28,9.67,12.54,17.46,13.69,8.36,1.23,16.5-3.96,24.81-1.81,4.66,1.21,6.99,5.05,9.77,8.62,2.35,3.03,5.72,5.99,9.84,5.5,.79-.09,.8-1.35,0-1.25h0Z"/><path class="cls-1" d="M93.46,200.69c-2.53-.26-5.04-.65-7.56-.96-2.7-.33-5.41-.52-8.08-1.04-2.52-.5-5.02-1.26-7.19-2.65-2.29-1.47-3.79-3.62-5.02-6-1.16-2.24-2.12-4.61-3.64-6.65s-3.58-3.36-5.71-4.67c-2.54-1.56-4.6-3.31-6.13-5.9s-2.43-5.24-3.55-7.89c-2.11-5-5.55-10.36-11.55-10.69-.8-.04-.8,1.21,0,1.25,6.24,.35,9.14,6.76,11.16,11.76,1,2.49,2.01,5.01,3.52,7.24s3.37,3.73,5.58,5.1c2.42,1.5,4.67,2.92,6.25,5.36,1.38,2.13,2.3,4.52,3.54,6.73,2.48,4.41,6.44,6.85,11.3,7.98,2.73,.64,5.51,.88,8.29,1.19,2.94,.32,5.86,.8,8.81,1.1,.8,.08,.79-1.17,0-1.25h0Z"/><path class="cls-1" d="M133.94,188.04c3.25-.75,5.2-3.96,5.35-7.15,.2-4.35-2.29-8.18-4.2-11.89s-3.01-7.9-2.06-12.24c.86-3.94,3.09-7.51,6.34-9.9,.26-.19,0-.62-.25-.43-5.48,4.02-8.2,11.36-6.45,17.97,1.13,4.28,4.04,7.81,5.41,12,1.34,4.09,.74,9.98-4.28,11.15-.31,.07-.18,.55,.13,.48h0Z"/><path class="cls-1" d="M139.72,191.29c4.73-5.5,7.52-12.52,7.86-19.77,.18-3.89-.52-7.61-1.37-11.38-1.04-4.62-2.04-9.41-.09-13.94,.13-.29-.31-.55-.43-.25-3.3,7.69,1.31,15.74,1.43,23.59,.12,7.79-2.67,15.5-7.75,21.41-.21,.24,.14,.6,.35,.35h0Z"/><path class="cls-1" d="M93.59,195.81c-3.06,1.82-6.8,1.17-9.85-.33s-5.61-4.19-7.67-7.04-3.83-5.79-5.95-8.54-4.45-5.32-6.96-7.7c-2.83-2.68-5.89-5.11-9.13-7.28-.27-.18-.52,.25-.25,.43,6.47,4.33,12.19,9.74,16.82,16,3.99,5.4,7.11,12.05,13.61,14.88,3.06,1.33,6.66,1.76,9.64,0,.28-.16,.03-.6-.25-.43h0Z"/><path class="cls-1" d="M150.52,134.36c6.42-6.63,2.07-16.56,1.17-24.32-.54-4.65,.38-8.82,3.12-12.62,2.18-3.01,4.93-5.53,7.33-8.36s4.35-5.94,4.63-9.69c.02-.32-.48-.32-.5,0-.53,7.25-7.33,11.82-11.41,17.15-2.24,2.92-3.7,6.17-3.83,9.9-.18,4.75,1.39,9.29,2.08,13.93,.7,4.7,.56,10.04-2.94,13.65-.22,.23,.13,.59,.35,.35h0Z"/></svg>