<?xml version="1.0" encoding="UTF-8"?><svg id="Layer_1" xmlns="http://www.w3.org/2000/svg" width="100" height="326" viewBox="0 0 100 326"><defs><style>.cls-1{fill:none;stroke:#070002;stroke-linecap:round;stroke-miterlimit:10;stroke-width:2px;}</style></defs><g><path d="M39.22,305.25c-.12-7.75,2.79-11.27,7.9-11.27,5.93,0,8.91,4.18,8.91,11.58,0,1.16-.08,2.29-.23,3.45h9.84v2.83h-25.8c-.39-2.44-.58-4.61-.62-6.59Zm13.56-4.77c-.97-2.4-2.87-3.53-5.46-3.53-3.72,0-5.62,2.52-5.62,7.94,0,1.39,.08,2.71,.27,4.11h11.47c.12-.97,.15-1.98,.15-3.02,0-2.25-.23-4.15-.81-5.5Z"/><path d="M39.1,277.15c0-7.94,5.89-12.47,13.17-12.47,6.66,0,13.95,3.76,13.95,12.59,0,7.98-5.89,12.51-13.17,12.51-6.66,0-13.95-3.76-13.95-12.63Zm2.48,.04c0,2.32,.66,4.07,1.51,5.31,2.17,3.1,6.04,4.26,9.57,4.26,6.2,0,11.08-3.41,11.08-9.57,0-2.33-.66-4.07-1.51-5.31-2.17-3.1-6.04-4.22-9.57-4.22-6.2,0-11.08,3.37-11.08,9.53Z"/><path d="M39.22,251.27c0-6.82,2.44-10.96,7.48-10.96,3.64,0,6.35,2.05,7.55,6.12l9.3-5.7c.77-.46,1.4-.85,2.09-1.12v3.1l-10.81,6.51c.12,.89,.15,1.82,.15,2.83,0,.93-.04,2.13-.15,3.29h10.81v2.83h-25.8c-.39-2.36-.62-4.61-.62-6.9Zm12.55-4.49c-.85-2.25-2.4-3.49-4.84-3.49-3.49,0-5.23,2.87-5.23,7.94,0,1.28,.08,2.67,.27,4.11h10.42c.12-1.16,.16-2.29,.16-3.29,0-1.98-.19-3.84-.77-5.27Z"/><path d="M39.68,215.04l2.44,.12v9.53h23.52v2.83h-23.52v9.61l-2.44,.08v-22.16Z"/><path d="M39.68,193.5l2.4,.12v13.56h10v-11.08h2.44v11.08h11.12v2.83h-25.96v-16.5Z"/><path d="M39.1,177.61c0-7.94,5.89-12.47,13.17-12.47,6.66,0,13.95,3.76,13.95,12.59,0,7.98-5.89,12.51-13.17,12.51-6.66,0-13.95-3.76-13.95-12.63Zm2.48,.04c0,2.32,.66,4.07,1.51,5.31,2.17,3.1,6.04,4.26,9.57,4.26,6.2,0,11.08-3.41,11.08-9.57,0-2.33-.66-4.07-1.51-5.31-2.17-3.1-6.04-4.22-9.57-4.22-6.2,0-11.08,3.37-11.08,9.53Z"/><path d="M39.68,155.79h23.56v-13.06l2.4-.08v15.96h-25.96v-2.83Z"/><path d="M39.68,134.75h25.96v2.83h-25.96v-2.83Z"/><path d="M39.1,115.62c0-7.94,5.89-12.47,13.17-12.47,6.66,0,13.95,3.76,13.95,12.59,0,7.98-5.89,12.51-13.17,12.51-6.66,0-13.95-3.76-13.95-12.63Zm2.48,.04c0,2.32,.66,4.07,1.51,5.31,2.17,3.1,6.04,4.26,9.57,4.26,6.2,0,11.08-3.41,11.08-9.57,0-2.33-.66-4.07-1.51-5.31-2.17-3.1-6.04-4.22-9.57-4.22-6.2,0-11.08,3.37-11.08,9.53Z"/></g><path class="cls-1" d="M52.02,18.61c-15.7-.81-13.94,13-30.35,30.35-5.04,5.33-3.07,11.8,2.15,17.4,6.71,7.2,18.77,12.95,28.2,12.95,16.76,0,30.35-13.59,30.35-30.35s-13.61-29.48-30.35-30.35Z"/><path class="cls-1" d="M57.75,33.22l10.93,7.07c.32,.21,.37,.63,.12,.91l-8.58,9.39"/><path class="cls-1" d="M43,67v-20.46c0-2.55,2.01-4.65,4.55-4.77l20.15-.91"/></svg>