<?xml version="1.0" encoding="UTF-8"?><svg id="Layer_1" xmlns="http://www.w3.org/2000/svg" width="160" height="290" viewBox="0 0 160 290"><defs><style>.cls-1{fill:#330914;}</style></defs><path class="cls-1" d="M21.69,9.37l27,4.4c-10.6,13-16.8,27.2-16.8,40.4s7.4,19.6,16.4,19.6c7.4,0,14-4.2,18.4-17.8l2.8-8.6c8.2-25.2,24-34.4,42.2-34.4,23.2,0,40.8,18.2,40.8,45,0,12.2-3.4,25.4-10.2,38.6l-26.4-4.2c7.8-13,12-24.6,12-34.8,0-11-6.6-17.2-15-17.2-7.6,0-13.6,4.2-18.2,18.6l-2.8,8.6c-8,24.6-24.2,34.2-42,34.2-22.6,0-43-16.2-43-47.2,0-18.4,7-33.8,14.8-45.2Z"/><path class="cls-1" d="M9.69,173.97l6-.8c-5.4-6-8.6-14-8.6-23.2,0-19,14-34,32.4-34s32.2,14.6,32.2,34.8c0,7.6-2.6,14.6-6.6,20.8h3.2c10,0,15.2-5,15.2-19.8,0-7.4-1.4-14.6-3.8-21.8l19.8,3.2c2.2,8.4,3.2,16.2,3.2,23.8,0,25.8-10.8,40-32.8,40H26.09l-16.4,.8v-23.8Zm30.4-1.6c8,0,14.2-6.6,14.2-15.4s-6.2-15-14.2-15-14.2,6.4-14.2,15,6.2,15.4,14.2,15.4Z"/><path class="cls-1" d="M102.49,273.77h-24.4c0-17.8-8.2-27.6-26.6-27.6H9.69v-27.2H99.09l3.2,25.6h-15.2c10.2,5.4,15.4,14.8,15.4,29.2Z"/></svg>