<?xml version="1.0" encoding="UTF-8"?><svg id="Layer_1" xmlns="http://www.w3.org/2000/svg" width="130" height="130" viewBox="0 0 130 130"><defs><style>.cls-1{fill:#9b853c;}.cls-2{fill:none;stroke:#9b853c;stroke-linecap:round;stroke-miterlimit:10;stroke-width:2px;}</style></defs><g><path class="cls-1" d="M46.87,62.94c1.76,0,3.46,.41,4.66,1l-.56,1.37c-1.07-.42-2.73-.78-4.27-.78-1.83,0-4.37,.58-4.37,2.98,0,2.02,1.93,2.56,4.17,3.12,2.61,.66,5.61,1.37,5.61,4.66s-3.2,4.73-6.42,4.73c-2.1,0-4.37-.56-5.86-1.66l.68-1.34c1.56,.93,3.29,1.42,5.22,1.42,2.05,0,4.54-.71,4.54-3.05,0-2.22-2.32-2.68-4.71-3.27-2.44-.61-5.07-1.44-5.07-4.42,0-3.39,3.25-4.76,6.37-4.76Z"/><path class="cls-1" d="M57.8,63.31v16.35h-1.78v-16.35h1.78Z"/><path class="cls-1" d="M74.92,63.31l-.07,1.54h-6v14.81h-1.78v-14.81h-6.05l-.05-1.54h13.96Z"/><path class="cls-1" d="M88.48,63.31l-.07,1.51h-8.54v5.73h6.98v1.51h-6.98v6.08h8.61l.05,1.51h-10.44v-16.35h10.39Z"/></g><path class="cls-2" d="M113.2,67.85c1.27-24.51-20.3-21.77-47.38-47.38-8.32-7.87-18.43-4.79-27.17,3.35-11.24,10.47-20.21,29.31-20.21,44.03,0,26.17,21.21,47.38,47.38,47.38s46.03-21.25,47.38-47.38Z"/></svg>